<?xml version="1.0" encoding="utf-8"?>
<!-- Generator: Adobe Illustrator 27.2.0, SVG Export Plug-In . SVG Version: 6.00 Build 0)  -->
<svg version="1.1" id="Layer_1" xmlns="http://www.w3.org/2000/svg" xmlns:xlink="http://www.w3.org/1999/xlink" x="0px" y="0px"
	 viewBox="0 0 449.4 82" style="enable-background:new 0 0 449.4 82;" xml:space="preserve">
<style type="text/css">
	.st0{fill:#FFFFFF;}
</style>
<g>
	<g>
		<g>
			<path class="st0" d="M169.4,21.5c-0.8,0-1.6,0.3-2.2,0.9c-0.6,0.6-0.9,1.3-0.9,2.2c0,1,0.3,1.7,0.9,2.3c0.6,0.5,1.4,0.8,2.2,0.8
				c0.8,0,1.6-0.3,2.2-0.8c0.6-0.5,0.9-1.3,0.9-2.3c0-1-0.3-1.7-0.9-2.3C171,21.7,170.2,21.5,169.4,21.5z"/>
			<path class="st0" d="M160.2,30.5c-0.7,0-1.3,0.2-1.7,0.5c-0.4,0.3-0.7,0.7-0.8,1.2c-0.2,0.5-0.4,1.2-0.7,2.2l-4.1,14l-3.7-13
				c-0.4-1.3-0.7-2.2-0.9-2.7c-0.2-0.5-0.6-1-1.1-1.5c-0.5-0.4-1.3-0.7-2.2-0.7c-0.9,0-1.6,0.2-2.2,0.7c-0.5,0.5-0.9,0.9-1.1,1.4
				c-0.2,0.5-0.5,1.4-0.9,2.8l-3.7,13l-4.1-14c-0.4-1.4-0.8-2.4-1.2-3c-0.4-0.6-1.1-0.9-2.1-0.9c-0.8,0-1.4,0.3-2,0.8
				c-0.5,0.5-0.8,1.1-0.8,1.8c0,0.5,0.3,1.5,0.8,2.9l5.1,15c0.1,0.4,0.3,0.9,0.6,1.6c0.2,0.7,0.5,1.3,0.8,1.8
				c0.3,0.5,0.7,0.9,1.2,1.1s1.1,0.4,1.8,0.4c1.3,0,2.3-0.4,2.8-1.3c0.5-0.9,1-2.1,1.5-3.8l3.5-12.2l3.6,12.2c0.3,1.1,0.6,2,0.8,2.7
				c0.3,0.7,0.7,1.3,1.2,1.7c0.5,0.5,1.3,0.7,2.2,0.7c0.9,0,1.6-0.2,2.2-0.7c0.5-0.4,0.9-0.9,1.2-1.5c0.2-0.6,0.6-1.5,1-2.7l5.1-15
				c0.5-1.3,0.7-2.3,0.7-2.9c0-0.7-0.3-1.3-0.8-1.8C161.6,30.8,160.9,30.5,160.2,30.5z"/>
			<path class="st0" d="M121.4,38.1c-1.1-0.8-2.4-1.4-3.9-1.9c-1.5-0.5-3.2-1-5.1-1.5c-1.5-0.4-2.6-0.7-3.2-0.9
				c-0.7-0.2-1.3-0.5-1.9-0.8c-0.6-0.4-1.1-0.8-1.5-1.3c-0.4-0.5-0.5-1.1-0.5-1.7c0-1.1,0.5-2,1.6-2.8c1.1-0.8,2.5-1.2,4.2-1.2
				c1.9,0,3.3,0.4,4.1,1.1c0.9,0.7,1.6,1.7,2.2,3c0.5,0.9,0.9,1.5,1.3,1.9c0.4,0.4,1,0.6,1.8,0.6c0.9,0,1.6-0.3,2.1-1
				c0.6-0.6,0.9-1.4,0.9-2.2c0-0.9-0.2-1.8-0.7-2.7c-0.5-0.9-1.2-1.8-2.2-2.7c-1-0.8-2.2-1.5-3.7-2c-1.5-0.5-3.3-0.8-5.3-0.8
				c-2.6,0-4.8,0.4-6.7,1.2c-1.9,0.8-3.4,1.9-4.4,3.3c-1,1.4-1.5,3.1-1.5,4.9c0,1.9,0.5,3.6,1.4,4.9c1,1.3,2.2,2.3,3.9,3.1
				c1.6,0.8,3.6,1.4,6.1,2c1.8,0.4,3.2,0.8,4.3,1.2c1.1,0.4,2,0.9,2.6,1.6c0.7,0.7,1,1.6,1,2.7c0,1.4-0.6,2.6-1.9,3.5
				s-2.9,1.4-4.9,1.4c-1.5,0-2.6-0.2-3.5-0.7c-0.9-0.5-1.6-1.1-2.1-1.8c-0.5-0.7-1-1.6-1.4-2.7c-0.4-0.9-0.8-1.6-1.3-2
				c-0.5-0.5-1.1-0.7-1.8-0.7c-0.9,0-1.6,0.3-2.2,0.9c-0.6,0.6-0.9,1.3-0.9,2.1c0,1.4,0.5,2.9,1.4,4.4c1,1.5,2.2,2.7,3.7,3.6
				c2.2,1.3,4.9,1.9,8.2,1.9c2.8,0,5.1-0.5,7.2-1.4s3.5-2.2,4.6-3.8c1-1.6,1.6-3.4,1.6-5.5c0-1.7-0.3-3.1-0.9-4.3
				C123.3,39.8,122.5,38.8,121.4,38.1z"/>
			<path class="st0" d="M169.4,30.5c-0.9,0-1.7,0.3-2.2,0.9c-0.6,0.6-0.9,1.6-0.9,2.8v17.9c0,1.2,0.3,2.2,0.9,2.8
				c0.6,0.7,1.3,1,2.2,1s1.7-0.3,2.3-1c0.6-0.6,0.9-1.6,0.9-2.8V34c0-1.1-0.3-2-0.9-2.6C171,30.8,170.3,30.5,169.4,30.5z"/>
			<path class="st0" d="M190.3,50.7c-0.4,0-0.8,0.1-1.5,0.2c-0.6,0.1-1.1,0.2-1.5,0.2c-0.7,0-1.2-0.2-1.5-0.5
				c-0.3-0.3-0.5-0.8-0.5-1.3c-0.1-0.5-0.1-1.3-0.1-2.3V35.5h1.2c1.2,0,2.2-0.2,2.8-0.5c0.7-0.3,1-0.9,1-1.8c0-0.7-0.2-1.2-0.7-1.6
				c-0.5-0.4-1.1-0.6-2-0.6h-2.3v-4.3c0-1.1-0.1-1.9-0.2-2.4c-0.1-0.6-0.4-1.1-0.8-1.5c-0.6-0.6-1.4-0.9-2.2-0.9
				c-0.6,0-1.1,0.1-1.5,0.4c-0.5,0.3-0.8,0.6-1.1,1c-0.2,0.4-0.4,0.9-0.4,1.5c-0.1,0.6-0.1,1.4-0.1,2.4V31h-0.7
				c-0.9,0-1.7,0.2-2.2,0.6c-0.5,0.4-0.7,1-0.7,1.6c0,0.7,0.2,1.2,0.7,1.6c0.5,0.4,1.2,0.6,2.1,0.6h0.8v12c0,1.9,0.2,3.5,0.5,4.6
				c0.3,1.2,1,2.1,2,2.7c1,0.7,2.5,1,4.4,1c2.1,0,3.6-0.3,4.7-0.8c1.1-0.5,1.6-1.3,1.6-2.3c0-0.6-0.2-1.1-0.6-1.5
				C191.3,50.9,190.8,50.7,190.3,50.7z"/>
			<path class="st0" d="M213.3,45.4c-0.6,0-1.2,0.2-1.6,0.6c-0.4,0.4-0.9,0.9-1.2,1.6c-0.7,1.2-1.5,2.1-2.4,2.7
				c-0.9,0.6-2,0.9-3.2,0.9c-0.9,0-1.8-0.2-2.6-0.5c-0.8-0.4-1.4-0.9-2-1.6c-0.5-0.7-1-1.5-1.3-2.5c-0.3-1-0.4-2.1-0.4-3.2
				c0-2.5,0.6-4.5,1.7-5.9c1.1-1.4,2.6-2.2,4.5-2.2c1.3,0,2.3,0.3,3.2,0.9c0.8,0.6,1.6,1.4,2.4,2.6c0.4,0.6,0.8,1,1.2,1.3
				c0.3,0.3,0.8,0.4,1.3,0.4c0.8,0,1.5-0.3,2-0.8c0.6-0.5,0.8-1.2,0.8-1.9c0-0.7-0.2-1.5-0.7-2.4c-0.5-0.8-1.2-1.6-2.2-2.4
				c-0.9-0.7-2.1-1.4-3.4-1.8c-1.3-0.5-2.8-0.7-4.5-0.7c-2.6,0-4.9,0.5-6.7,1.6c-1.9,1.1-3.3,2.6-4.3,4.6c-1,2-1.5,4.2-1.5,6.8
				c0,3.8,1.1,6.8,3.2,9c2.2,2.3,5.2,3.4,9,3.4c1.8,0,3.4-0.2,4.9-0.7c1.4-0.5,2.7-1.1,3.6-1.9c1-0.8,1.7-1.6,2.1-2.5
				c0.5-0.9,0.7-1.7,0.7-2.5c0-0.7-0.3-1.3-0.8-1.9C214.7,45.7,214.1,45.4,213.3,45.4z"/>
			<path class="st0" d="M241.2,36.9c-0.2-0.9-0.5-1.8-0.9-2.5c-0.7-1.3-1.7-2.3-2.9-2.9c-1.2-0.7-2.6-1-4.2-1c-1.1,0-2,0.1-3,0.4
				c-0.9,0.3-1.8,0.7-2.5,1.2c-0.8,0.5-1.5,1.3-2.3,2.2V25c0-1.3-0.3-2.2-0.8-2.8c-0.6-0.6-1.3-1-2.3-1c-1,0-1.7,0.3-2.3,0.9
				c-0.5,0.6-0.8,1.6-0.8,2.8v27.1c0,2.5,1,3.8,3.1,3.8c1,0,1.8-0.3,2.3-1c0.6-0.6,0.8-1.6,0.8-2.8v-8.3c0-2.4,0.2-4,0.5-5
				c0.4-1.1,1.1-2,2-2.6c0.9-0.6,1.9-0.9,3-0.9c1.7,0,2.8,0.5,3.4,1.6s0.9,2.6,0.9,4.6v10.5c0,2.5,1,3.8,3.1,3.8
				c0.9,0,1.7-0.3,2.3-1c0.6-0.6,0.9-1.6,0.9-2.8v-12C241.4,38.9,241.4,37.9,241.2,36.9z"/>
		</g>
		<path class="st0" d="M266,32c-1.6-1-3.4-1.5-5.5-1.5c-1.8,0-3.3,0.3-4.5,1c-1.2,0.6-2.4,1.6-3.6,2.8v-9.5c0-1.1-0.3-2-0.8-2.6
			c-0.5-0.6-1.3-0.9-2.2-0.9c-0.9,0-1.6,0.3-2.1,1c-0.5,0.6-0.8,1.6-0.8,2.9v27.3c0,1.2,0.3,2.1,0.8,2.7c0.5,0.6,1.2,0.9,2.1,0.9
			c0.9,0,1.6-0.3,2.2-0.9c0.6-0.6,0.8-1.5,0.8-2.7v-0.6c0.7,0.8,1.2,1.4,1.7,1.8c0.4,0.4,0.9,0.8,1.5,1.2c0.6,0.4,1.3,0.7,2.2,0.9
			c0.8,0.2,1.8,0.3,2.7,0.3c1.6,0,3-0.3,4.3-0.9c1.3-0.6,2.4-1.5,3.3-2.7c0.9-1.2,1.6-2.5,2.1-4.1s0.7-3.3,0.7-5.2
			c0-2.6-0.4-4.8-1.3-6.6C268.8,34.4,267.6,33,266,32z M262.9,49c-1.1,1.4-2.5,2-4.1,2c-1.8,0-3.3-0.7-4.5-2
			c-1.1-1.3-1.7-3.2-1.7-5.7c0-1.7,0.3-3.2,0.8-4.4c0.5-1.2,1.3-2.2,2.2-2.8c0.9-0.6,2-1,3.2-1c1.2,0,2.2,0.3,3,1
			c0.9,0.6,1.5,1.6,2,2.8c0.5,1.2,0.7,2.6,0.7,4.3C264.7,45.7,264.1,47.6,262.9,49z"/>
		<path class="st0" d="M295,34c-1.1-1.1-2.4-2-4-2.6c-1.5-0.6-3.3-0.9-5.1-0.9c-1.9,0-3.6,0.3-5.1,0.9c-1.5,0.6-2.9,1.5-3.9,2.6
			c-1.1,1.1-1.9,2.5-2.5,4c-0.6,1.6-0.9,3.3-0.9,5.2c0,1.9,0.3,3.6,0.9,5.1c0.6,1.5,1.4,2.9,2.5,4c1.1,1.1,2.4,2,3.9,2.6
			c1.5,0.6,3.2,0.9,5.1,0.9c1.9,0,3.6-0.3,5.1-0.9c1.5-0.6,2.8-1.5,3.9-2.6c1.1-1.1,1.9-2.5,2.5-4c0.6-1.6,0.9-3.3,0.9-5.1
			c0-1.9-0.3-3.6-0.9-5.1C296.9,36.5,296.1,35.1,295,34z M290.4,49.1c-1.1,1.4-2.6,2.1-4.5,2.1c-1.3,0-2.3-0.3-3.3-1
			c-0.9-0.6-1.6-1.6-2.1-2.8c-0.5-1.2-0.7-2.6-0.7-4.3c0-1.6,0.3-3.1,0.8-4.3c0.5-1.2,1.2-2.2,2.2-2.8c0.9-0.6,2-0.9,3.2-0.9
			c1.9,0,3.4,0.7,4.5,2.1s1.7,3.4,1.7,5.9C292.1,45.7,291.5,47.7,290.4,49.1z"/>
		<path class="st0" d="M344.4,31.5c-1.2-0.7-2.5-1-3.8-1c-1.3,0-2.4,0.3-3.1,1c-0.8,0.7-1.6,1.6-2.3,2.9c0-1.3-0.3-2.2-0.8-2.9
			c-0.5-0.7-1.2-1-2.2-1c-2,0-3,1.4-3,4.2v17.4c0,1.3,0.3,2.2,0.9,2.8c0.6,0.6,1.3,1,2.2,1c0.9,0,1.7-0.3,2.3-0.9
			c0.6-0.6,0.9-1.6,0.9-2.8v-5.2c0-1.9,0.1-3.5,0.2-4.8c0.1-1.3,0.3-2.4,0.7-3.4c0.3-0.9,0.8-1.7,1.3-2.1c0.6-0.5,1.3-0.7,2.2-0.7
			c0.7,0,1.4,0.1,2.3,0.4c0.9,0.3,1.4,0.4,1.7,0.4c0.6,0,1.2-0.2,1.7-0.7c0.5-0.5,0.8-1.1,0.8-1.9C346.2,33,345.6,32.1,344.4,31.5z"
			/>
		<path class="st0" d="M323.7,47.2c0-1.3,0-2.4,0-3.4c0-1,0-2.3,0-3.7c0-2.3-0.3-4.2-1-5.6c-0.6-1.4-1.8-2.4-3.3-3.1
			c-1.6-0.6-3.7-1-6.5-1c-2.5,0-4.5,0.3-6.2,1c-1.6,0.7-2.9,1.5-3.6,2.6c-0.8,1-1.2,2.1-1.2,3.2c0,0.7,0.3,1.3,0.8,1.7
			c0.5,0.5,1.1,0.7,1.8,0.7c0.8,0,1.3-0.1,1.5-0.4c0.2-0.3,0.6-0.9,1.2-1.8c0.6-0.9,1.3-1.5,2.1-2c0.8-0.4,2-0.7,3.6-0.7
			c1.8,0,3.1,0.4,3.6,1.2c0.6,0.8,0.9,2,1,3.6c-1.3,0.4-2.5,0.7-3.6,1c-1.1,0.3-2.5,0.6-4,0.9c-1.6,0.3-2.6,0.5-3,0.6
			c-1.9,0.4-3.4,1.2-4.5,2.4c-1.1,1.2-1.6,2.7-1.6,4.4c0,1.3,0.3,2.4,1,3.5c0.7,1.1,1.6,1.9,2.8,2.6c1.2,0.6,2.6,0.9,4.2,0.9
			c1.8,0,3.3-0.3,4.7-0.9c1.4-0.6,2.9-1.5,4.4-2.6c0.7,1.1,1.4,2,2,2.6c0.6,0.6,1.3,0.9,1.9,0.9c0.8,0,1.4-0.3,2-0.8
			c0.6-0.5,0.9-1.1,0.9-1.8c0-0.4-0.2-1.2-0.6-2.5C323.9,49.6,323.7,48.4,323.7,47.2z M317.6,44.2c0,2.2-0.3,3.7-0.8,4.7
			c-0.5,0.9-1.3,1.6-2.3,2.1c-1,0.5-2.2,0.8-3.4,0.8c-1.2,0-2.1-0.3-2.8-1c-0.7-0.7-1.1-1.5-1.1-2.4c0-0.9,0.3-1.6,0.9-2.1
			c0.6-0.5,1.3-0.9,1.9-1c0.7-0.2,1.9-0.4,3.6-0.8c1.7-0.4,3.1-0.7,4-1.1V44.2z"/>
		<path class="st0" d="M369.7,22.1c-0.5-0.6-1.2-0.9-2.2-0.9c-0.9,0-1.7,0.3-2.2,1c-0.5,0.7-0.8,1.6-0.8,2.9v9.2
			c-1.2-1.3-2.4-2.2-3.6-2.8c-1.2-0.6-2.8-0.9-4.6-0.9c-3.1,0-5.6,1.1-7.5,3.3C347,36,346,39,346,42.9c0,1.8,0.2,3.6,0.7,5.1
			c0.5,1.6,1.2,3,2.1,4.1c0.9,1.2,2,2.1,3.3,2.7c1.3,0.6,2.7,0.9,4.2,0.9c1.1,0,2.2-0.2,3.1-0.5c1-0.3,1.8-0.8,2.7-1.4
			c0.8-0.6,1.6-1.4,2.5-2.3v0.6c0,1.1,0.3,2,0.8,2.6c0.6,0.6,1.3,0.9,2.1,0.9c0.9,0,1.6-0.3,2.1-0.9c0.5-0.6,0.8-1.5,0.8-2.7V24.8
			C370.5,23.6,370.2,22.7,369.7,22.1z M363.4,47.6c-0.5,1.2-1.3,2.1-2.2,2.6c-0.9,0.6-1.9,0.9-3,0.9c-1.1,0-2.1-0.3-3-0.9
			c-0.9-0.6-1.6-1.5-2.2-2.7c-0.5-1.2-0.8-2.6-0.8-4.3c0-1.6,0.2-3,0.7-4.2c0.5-1.2,1.2-2.1,2.1-2.8c0.9-0.6,1.9-1,3.1-1
			c1.1,0,2.1,0.3,3,0.9c0.9,0.6,1.7,1.5,2.2,2.7c0.5,1.2,0.8,2.6,0.8,4.3C364.3,44.9,364,46.4,363.4,47.6z"/>
	</g>
	<g>
		<path class="st0" d="M41,82C18.4,82,0,63.6,0,41S18.4,0,41,0s41,18.4,41,41S63.6,82,41,82z M41,3.9C20.5,3.9,3.9,20.5,3.9,41
			S20.5,78.1,41,78.1S78.1,61.5,78.1,41S61.5,3.9,41,3.9z"/>
		<path class="st0" d="M16.8,47.7c-3.7,0-6.7-3-6.7-6.7s3-6.7,6.7-6.7s6.7,3,6.7,6.7S20.4,47.7,16.8,47.7z M16.8,38.5
			c-1.4,0-2.5,1.1-2.5,2.5c0,1.4,1.1,2.5,2.5,2.5c1.4,0,2.5-1.1,2.5-2.5C19.3,39.6,18.1,38.5,16.8,38.5z M57.2,29.3
			c-3.7,0-6.7-3-6.7-6.7s3-6.7,6.7-6.7c3.7,0,6.7,3,6.7,6.7S60.9,29.3,57.2,29.3z M57.2,20.1c-1.4,0-2.5,1.1-2.5,2.5
			c0,1.4,1.1,2.5,2.5,2.5c1.4,0,2.5-1.1,2.5-2.5C59.7,21.2,58.6,20.1,57.2,20.1z"/>
		<path class="st0" d="M57.2,66.1c-3.7,0-6.7-3-6.7-6.7c0-3.7,3-6.7,6.7-6.7c3.7,0,6.7,3,6.7,6.7C63.9,63.1,60.9,66.1,57.2,66.1z
			 M57.2,56.9c-1.4,0-2.5,1.1-2.5,2.5c0,1.4,1.1,2.5,2.5,2.5c1.4,0,2.5-1.1,2.5-2.5C59.7,58,58.6,56.9,57.2,56.9z M57.2,47.7
			c-3.7,0-6.7-3-6.7-6.7s3-6.7,6.7-6.7c3.7,0,6.7,3,6.7,6.7S60.9,47.7,57.2,47.7z M57.2,38.5c-1.4,0-2.5,1.1-2.5,2.5
			c0,1.4,1.1,2.5,2.5,2.5c1.4,0,2.5-1.1,2.5-2.5C59.7,39.6,58.6,38.5,57.2,38.5z"/>
		<path class="st0" d="M45.8,60.9c-6.5,0-8.2-5.3-9.7-9.9c-1.7-5.3-3.1-8.4-7.8-8.4c-0.9,0-1.6-0.7-1.6-1.6c0-0.9,0.7-1.6,1.6-1.6
			c7.3,0,9.2,5.9,10.8,10.6c1.6,4.8,2.8,7.8,6.8,7.8c0.9,0,1.6,0.7,1.6,1.6S46.6,60.9,45.8,60.9z"/>
		<path class="st0" d="M45.8,42.6h-7.4c-0.9,0-1.6-0.7-1.6-1.6c0-0.9,0.7-1.6,1.6-1.6h7.4c0.9,0,1.6,0.7,1.6,1.6
			C47.3,41.9,46.6,42.6,45.8,42.6z"/>
		<path class="st0" d="M28.2,43.6c-1.4,0-2.6-1.2-2.6-2.6s1.2-2.6,2.6-2.6c3.9,0,5-2.4,6.8-7.7C36.5,26.2,38.5,20,45.8,20
			c1.4,0,2.6,1.2,2.6,2.6s-1.2,2.6-2.6,2.6c-3.1,0-4.1,2-5.8,7.1C38.4,37.1,36.2,43.6,28.2,43.6z"/>
	</g>
	<g>
		<path class="st0" d="M398,42.8c-1.3-1-2.7-1.7-6.8-2.7l-0.1,0c-2.4-0.6-4.9-1.2-4.9-3c0-1.7,2-2.5,3.9-2.5c2.9,0,3.6,1.5,4,2.3
			c0.6,1.3,1.1,2.3,2.6,2.3c1.6,0,2.5-1.5,2.5-2.5c0-1.6-1.6-6.2-8.9-6.2c-5.8,0-9.3,2.7-9.3,7c0,2,0.8,3.8,2.5,5.1
			c1.1,0.9,2.3,1.5,5.9,2.3c2.8,0.6,5.5,1.2,5.5,3.7c0,2.2-2.4,3.2-4.6,3.2c-3,0-4-1.6-4.5-2.9l0-0.1c-0.7-1.7-1.2-2.7-2.7-2.7
			c-1.6,0-2.5,1.2-2.5,2.4c0,0.1,0.3,7.4,9.9,7.4c6,0,9.8-3.1,9.8-7.9C400.3,47.2,400.2,44.5,398,42.8z"/>
		<path class="st0" d="M413.3,30.9H408c-1.9,0-2.8,0-3.6,0.8c-0.8,0.9-0.8,1.4-0.8,3.6v15.9c0,1.9,0,2.6,0.5,3.3
			c0.9,1.1,1.8,1.1,3.8,1.1h5.4c4.5,0,6.5-1.3,7.7-2.4c2.5-2.3,3.7-5.4,3.7-9.8c0-3.4-0.7-6.3-2.2-8.3
			C419.7,30.9,415.5,30.9,413.3,30.9z M409.1,35.2h2.9c3,0,4.1,0.3,5.3,1.5c1,1.1,2,2.6,2,6.5c0,8-4.2,8-6.8,8h-3.4V35.2z"/>
		<path class="st0" d="M448,50.2l-6.7-9.6l5.7-5.4c0.8-0.8,1.2-1.6,1.2-2.4c0-0.9-0.8-2.3-2.6-2.3c-1.3,0-2,0.7-2.7,1.5l0.2,0.2
			l-0.2-0.2l-9.1,9.5v-6.6c0-1.7,0-2.8-0.8-3.5c-0.5-0.5-1.2-0.8-2-0.8c-0.9,0-1.6,0.5-1.9,0.8c-0.8,0.7-0.8,1.8-0.8,3.5v16.8
			c0,1.1,0,2.1,0.4,2.9c0.3,0.8,1.4,1.4,2.4,1.4c0.9,0,1.6-0.5,2-0.9c0.6-0.7,0.7-1.9,0.7-2.4v-4.9l3.7-3.5l5.6,8.6
			c0.1,0.2,0.2,0.3,0.3,0.5c0.7,1.2,1.6,2.6,3.5,2.6c1.6,0,2.6-0.9,2.6-2.3C449.4,52.5,448.6,51.1,448,50.2z"/>
	</g>
</g>
</svg>
